<svg xmlns="http://www.w3.org/2000/svg" data-name="Layer 1" width="876.27165" height="661.47277"><rect id="backgroundrect" width="100%" height="100%" x="0" y="0" fill="none" stroke="none"/><g class="currentLayer" style=""><title>Layer 1</title><path d="M504.9700637402344,32.19404315185548 c7.51624,15.99516 -8.41069,20.5258 -26.65516,29.099 s-31.8977,17.94247 -39.41393,1.94732 s-13.61474,-47.74263 12.19523,-59.87092 C477.7953637402344,-9.176656848144532 497.45383374023436,16.19888315185547 504.9700637402344,32.19404315185548 z" fill="#2f2e41" id="svg_1"/><circle cx="467.74627685546875" cy="39.08911895751953" r="24.5610294342041" fill="#ffb8b8" id="svg_2"/><path d="M589.4262037402344,148.01231315185547 c-0.8500900000000001,-1.11 -1.70019,-2.2 -2.56006,-3.26 q-1.6647900000000002,-2.07 -3.35009,-4.01 c-12.73,-14.69 -26.27,-23.94 -41.17969,-24.93 h-0.020000000000000004 l-0.22021000000000004,-0.020000000000000004 l-29.71,28.96 l-10.10009,9.84 l0.22021000000000004,0.54 l5.44971,13.57 h95.49023 A234.83392,234.83392 0 0 0 589.4262037402344,148.01231315185547 z" fill="#2f2e41" id="svg_3"/><path d="M441.03790374023436,48.977333151855476 l0,0 l8.792,-4.1314400000000004 l-1.22476,-12.68333 l5.87908,10.49623 l4.20223,-1.97466 l-0.7144,-7.39862 l3.42957,6.12274 l31.22444,-14.67258 l0,0 a26,26 0 0 0 -34.589,-12.47385 l-4.52533,2.12648 A26,26 0 0 0 441.03790374023436,48.977333151855476 z" fill="#2f2e41" id="svg_4"/><path d="M644.5260637402343,494.8001631518555 H131.6875637402344 a16.51867,16.51867 0 0 1 -16.5,-16.5 V170.14635315185546 a12.10184,12.10184 0 0 1 12.08789,-12.08838 H648.7289437402344 a12.31112,12.31112 0 0 1 12.29712,12.29736 V478.3001631518555 A16.51868,16.51868 0 0 1 644.5260637402343,494.8001631518555 z" fill="#f2f2f2" id="svg_5"/><path d="M147.6875637402344,478.3001631518555 h480.8385 a16,16 0 0 0 16,-16 V200.75231315185545 a16,16 0 0 0 -16,-16 H147.6875637402344 a16,16 0 0 0 -16,16 V462.3001631518555 A16,16 0 0 0 147.6875637402344,478.3001631518555 z" fill="#fff" id="svg_6"/><path d="M660.7963237402344,169.20254315185548 H114.95599374023436 v-8.40039 a16.57376,16.57376 0 0 1 16.56006,-16.5498 H644.2362637402343 a16.57368,16.57368 0 0 1 16.56006,16.5498 z" fill="#eb1a1a" id="svg_7" class="" fill-opacity="1"/><circle cx="145.0513458251953" cy="156.75230407714844" r="4.283420085906982" fill="#fff" id="svg_8"/><circle cx="161.31015014648438" cy="156.75230407714844" r="4.283420085906982" fill="#fff" id="svg_9"/><circle cx="177.56895446777344" cy="156.75230407714844" r="4.283420085906982" fill="#fff" id="svg_10"/><path d="M403.1102437402344,421.57908315185546 h-43 a9.51081,9.51081 0 0 1 -9.5,-9.5 v-43 a9.51081,9.51081 0 0 1 9.5,-9.5 h43 a9.51081,9.51081 0 0 1 9.5,9.5 v43 A9.51081,9.51081 0 0 1 403.1102437402344,421.57908315185546 zm-43,-60 a7.50835,7.50835 0 0 0 -7.5,7.5 v43 a7.50836,7.50836 0 0 0 7.5,7.5 h43 a7.50836,7.50836 0 0 0 7.5,-7.5 v-43 a7.50835,7.50835 0 0 0 -7.5,-7.5 z" fill="#ccc" id="svg_11"/><path d="M394.6102437402344,409.57908315185546 h-26 a3.00328,3.00328 0 0 1 -3,-3 v-32 a3.00328,3.00328 0 0 1 3,-3 h18.83935 a3.0073,3.0073 0 0 1 1.8794,0.6616200000000002 l7.16016,5.7539 a2.9844,2.9844 0 0 1 1.12109,2.33838 v26.2461 A3.00328,3.00328 0 0 1 394.6102437402344,409.57908315185546 zm-26,-36 a1.0013,1.0013 0 0 0 -1,1 v32 a1.0013,1.0013 0 0 0 1,1 h26 a1.0013,1.0013 0 0 0 1,-1 v-26.2461 a0.99457,0.99457 0 0 0 -0.37354000000000004,-0.77929 l-7.16113,-5.7544 a1.00206,1.00206 0 0 0 -0.6260000000000001,-0.22021000000000004 z" fill="#ccc" id="svg_12"/><path d="M389.6102437402344,385.57908315185546 h-16 a1,1 0 0 1 0,-2 h16 a1,1 0 0 1 0,2 z" fill="#ccc" id="svg_13"/><path d="M389.6102437402344,391.57908315185546 h-16 a1,1 0 0 1 0,-2 h16 a1,1 0 0 1 0,2 z" fill="#ccc" id="svg_14"/><path d="M389.6102437402344,397.57908315185546 h-16 a1,1 0 0 1 0,-2 h16 a1,1 0 0 1 0,2 z" fill="#ccc" id="svg_15"/><path d="M505.1102437402344,421.57908315185546 h-43 a9.51081,9.51081 0 0 1 -9.5,-9.5 v-43 a9.51081,9.51081 0 0 1 9.5,-9.5 h43 a9.51081,9.51081 0 0 1 9.5,9.5 v43 A9.51081,9.51081 0 0 1 505.1102437402344,421.57908315185546 zm-43,-60 a7.50835,7.50835 0 0 0 -7.5,7.5 v43 a7.50836,7.50836 0 0 0 7.5,7.5 h43 a7.50836,7.50836 0 0 0 7.5,-7.5 v-43 a7.50835,7.50835 0 0 0 -7.5,-7.5 z" fill="#ccc" id="svg_16"/><path d="M497.6102437402344,401.57908315185546 h-28 a3.00328,3.00328 0 0 1 -3,-3 v-16 a3.00328,3.00328 0 0 1 3,-3 h28 a3.00328,3.00328 0 0 1 3,3 v16 A3.00328,3.00328 0 0 1 497.6102437402344,401.57908315185546 zm-28,-20 a1.001,1.001 0 0 0 -1,1 v16 a1.001,1.001 0 0 0 1,1 h28 a1.001,1.001 0 0 0 1,-1 v-16 a1.001,1.001 0 0 0 -1,-1 z" fill="#ccc" id="svg_17"/><path d="M483.6102437402344,393.2172631518555 a3.00345,3.00345 0 0 1 -1.5898400000000001,-0.45264 l-14.94043,-9.3374 a1.00027,1.00027 0 0 1 1.06054,-1.6962900000000003 l14.94043,9.3374 a1.00555,1.00555 0 0 0 1.05957,0 l14.93946,-9.3374 a1.00027,1.00027 0 0 1 1.06054,1.6962900000000003 l-14.93945,9.3374 A3.00432,3.00432 0 0 1 483.6102437402344,393.2172631518555 z" fill="#ccc" id="svg_18"/><path d="M301.11024374023435,421.57908315185546 h-43 a9.51081,9.51081 0 0 1 -9.5,-9.5 v-43 a9.51081,9.51081 0 0 1 9.5,-9.5 h43 a9.51081,9.51081 0 0 1 9.5,9.5 v43 A9.51081,9.51081 0 0 1 301.11024374023435,421.57908315185546 zm-43,-60 a7.50835,7.50835 0 0 0 -7.5,7.5 v43 a7.50836,7.50836 0 0 0 7.5,7.5 h43 a7.50836,7.50836 0 0 0 7.5,-7.5 v-43 a7.50835,7.50835 0 0 0 -7.5,-7.5 z" fill="#ccc" id="svg_19"/><path d="M293.61024374023435,401.57908315185546 h-28 a3.00328,3.00328 0 0 1 -3,-3 v-16 a3.00328,3.00328 0 0 1 3,-3 h28 a3.00328,3.00328 0 0 1 3,3 v16 A3.00328,3.00328 0 0 1 293.61024374023435,401.57908315185546 zm-28,-20 a1.001,1.001 0 0 0 -1,1 v16 a1.001,1.001 0 0 0 1,1 h28 a1.001,1.001 0 0 0 1,-1 v-16 a1.001,1.001 0 0 0 -1,-1 z" fill="#ccc" id="svg_20"/><path d="M289.1722537402344,401.57908315185546 h-20.124 a1.99958,1.99958 0 0 1 -1.7319400000000003,-3 l6.06153,-10.5 a2.00022,2.00022 0 0 1 3.46435,0 l3.915,6.78125 l2.26807,-3.92871 a2.00022,2.00022 0 0 1 3.46435,0 l4.415,7.64746 a2,2 0 0 1 -1.73242,3 zm0,-2 h0 l-4.415,-7.64746 l-3.13379,5.42871 a0.99985,0.99985 0 0 1 -0.86621,0.5 h0 a0.99985,0.99985 0 0 1 -0.86621,-0.5 l-4.78076,-8.28125 l-6.062,10.5 z" fill="#ccc" id="svg_21"/><circle cx="290.6101379394531" cy="385.5788879394531" r="2" fill="#ccc" id="svg_22"/><polygon points="768.825 648.15 756.565 648.149 750.733 600.861 768.827 600.862 768.825 648.15" fill="#ffb8b8" id="svg_23"/><path d="M771.9514737402344,660.0338831518554 l-39.53051,-0.0014600000000000004 v-0.5 a15.386050000000001,15.386050000000001 0 0 1 15.38647,-15.38623 h0.0010000000000000002 l24.1438,0.0010000000000000002 z" fill="#2f2e41" id="svg_24"/><polygon points="818.825 648.15 806.565 648.149 800.733 600.861 818.827 600.862 818.825 648.15" fill="#ffb8b8" id="svg_25"/><path d="M821.9514737402344,660.0338831518554 l-39.53051,-0.0014600000000000004 v-0.5 a15.386050000000001,15.386050000000001 0 0 1 15.38647,-15.38623 h0.0010000000000000002 l24.1438,0.0010000000000000002 z" fill="#2f2e41" id="svg_26"/><path d="M815.1497337402344,627.6503331518554 l-11.35449,-3.4541 a4.49323,4.49323 0 0 1 -3.16577,-3.833 L790.0435337402344,520.0370531518555 a0.47984000000000004,0.47984000000000004 0 0 0 -0.47851000000000005,-0.44726000000000005 a0.46935000000000004,0.46935000000000004 0 0 0 -0.5105,0.40918000000000004 l-17.731,97.19922 a4.50036,4.50036 0 0 1 -5.33471,3.59961 L751.4773737402344,617.8085431518555 a4.51613,4.51613 0 0 1 -3.5817900000000003,-4.71192 l10.7854,-159.3125 l73.13794,-7.8916 l-10.86792,177.72656 a4.50464,4.50464 0 0 1 -4.48437,4.22754 A4.52613,4.52613 0 0 1 815.1497337402344,627.6503331518554 z" fill="#2f2e41" id="svg_27"/><circle cx="815.0802612304688" cy="290.4869384765625" r="24.5610294342041" fill="#ffb8b8" id="svg_28"/><path d="M758.5684437402343,454.71967315185543 l15.85815,-99.85107 a37.85746,37.85746 0 0 1 48.00537,-30.39942 h0 a37.74323,37.74323 0 0 1 26.60108,43.26221 l-16.59107,89.17187 z" fill="#eb1a1a" id="svg_29" class="" fill-opacity="1"/><path d="M821.8608337402344,472.5856331518555 a10.0558,10.0558 0 0 0 1.747,-15.32 l16.39619,-31.75128 l-18.46486,1.9704799999999998 l-12.73924,29.84946 a10.11027,10.11027 0 0 0 13.06089,15.25138 z" fill="#ffb8b8" id="svg_30"/><path d="M825.3717737402344,451.66509315185544 a4.50552,4.50552 0 0 1 -2.4265,-1.15083 l-6.27324,-5.79662 a4.51468,4.51468 0 0 1 -1.09178,-5.05417 l12.53746,-29.71816 l-1.77859,-58.71981 a14.49652,14.49652 0 1 1 28.727,3.91856 l3.041,36.91226 a46.37346,46.37346 0 0 1 -8.93769,31.39683 l-19.55206,26.43232 a4.505,4.505 0 0 1 -3.19513,1.80387 A4.4545200000000005,4.4545200000000005 0 0 1 825.3717737402344,451.66509315185544 z" fill="#eb1a1a" id="svg_31" class="" fill-opacity="1"/><path d="M673.6409137402344,277.1051431518555 a10.05575,10.05575 0 0 0 13.42647,7.58193 l22.84575,27.47819 l5.38477,-17.77183 l-22.52025,-23.36914 a10.11027,10.11027 0 0 0 -19.13674,6.08085 z" fill="#ffb8b8" id="svg_32"/><path d="M691.5369037402344,288.49504315185544 a4.50564,4.50564 0 0 1 2.00583,-1.78577 l7.7837700000000005,-3.5167200000000003 a4.51467,4.51467 0 0 1 5.07986,0.96521 l22.478,23.13213 l54.76621,21.25658 a14.49652,14.49652 0 1 1 -14.80889,24.92573 l-35.17667,-11.59151 a46.37351,46.37351 0 0 1 -25.42736,-20.47176 l-16.71728,-28.31048 a4.50493,4.50493 0 0 1 -0.41535000000000005,-3.64558 A4.45446,4.45446 0 0 1 691.5369037402344,288.49504315185544 z" fill="#eb1a1a" id="svg_33" class="" fill-opacity="1"/><polygon points="835.002 375.652 834.002 407.652 815.58 439.663 830.962 403.99 835.002 375.652" opacity="0.1" id="svg_34"/><path d="M812.2663037402343,295.10267315185547 a6.42292,6.42292 0 0 1 -7.03053,-4.70224 a9.76432,9.76432 0 0 0 -6.95075,-7.2736 c-4.5055,-1.02949 -10.01213,1.09128 -13.31351,-2.32232 a6.63748,6.63748 0 0 1 -1.57539,-5.84234 c0.6080700000000001,-3.31718 2.981,-5.8232 5.56326,-7.8275 a34.06226,34.06226 0 0 1 18.8661,-7.05067 a67.67657,67.67657 0 0 1 10.62084,0.52837 a47.00933,47.00933 0 0 1 10.86368,1.98538 a25.57605,25.57605 0 0 1 16.00171,18.68024 a29.528,29.528 0 0 1 -6.05709,24.13034 a31.70221,31.70221 0 0 1 -12.160590000000001,9.25872 a4.74429,4.74429 0 0 1 -3.60621,0.18291000000000004 c-2.9573400000000003,-1.17583 -2.47409,-4.83917 -1.12569,-7.28253 c1.443,-2.61478 3.6633500000000003,-5.1464 2.50287,-8.32859 a6.302,6.302 0 0 0 -3.12714,-3.3662 c-2.93992,-1.4992800000000002 -6.22821,-1.14456 -9.38876,-0.77957 z" fill="#2f2e41" id="svg_35"/><path d="M665.4332437402344,308.9726431518555 h-304 a16.51867,16.51867 0 0 1 -16.5,-16.5 v-65 a16.51868,16.51868 0 0 1 16.5,-16.5 h304 a16.519,16.519 0 0 1 16.5,16.5 v65 A16.519,16.519 0 0 1 665.4332437402344,308.9726431518555 z" fill="#fff" id="svg_36"/><path d="M665.4330737402344,309.4727831518555 h-304 a17.01917,17.01917 0 0 1 -17,-17 v-65 a17.01916,17.01916 0 0 1 17,-17 h304 a17.01916,17.01916 0 0 1 17,17 v65 A17.01917,17.01917 0 0 1 665.4330737402344,309.4727831518555 zm-304,-97 a15.017,15.017 0 0 0 -15,15 v65 a15.017,15.017 0 0 0 15,15 h304 a15.017,15.017 0 0 0 15,-15 v-65 a15.017,15.017 0 0 0 -15,-15 z" fill="#3f3d56" id="svg_37"/><path d="M628.4330737402344,292.9727831518555 h-230 a16.51868,16.51868 0 0 1 -16.5,-16.5 v-34 a16.51867,16.51867 0 0 1 16.5,-16.5 h230 a16.51866,16.51866 0 0 1 16.5,16.5 v34 A16.51867,16.51867 0 0 1 628.4330737402344,292.9727831518555 z" fill="#f2f2f2" id="svg_38"/><circle cx="447.9280090332031" cy="254.9148406982422" r="19.732280731201172" fill="#ff6584" id="svg_39"/><path d="M614.1400837402343,290.98144315185544 l-27.85254,-23.35968 l-27.37158,-22.95636 a4.00031,4.00031 0 0 0 -5.15283,0.010000000000000002 l-27.28321,23.06165 l-6.66406,5.6333 l-10.04834,-8.42737 l-30.53711,-25.61084 a3.9996400000000003,3.9996400000000003 0 0 0 -5.15234,0.009890000000000003 l-30.438,25.72833 l-30.917,26.13349 a0.99994,0.99994 0 0 0 0.64746,1.7637300000000002 l63.38672,-0.12213000000000002 l20.064,-0.03864000000000001 l-0.19629000000000005,0.16600000000000004 l59.80762,-0.11524000000000002 l57.0669,-0.10992000000000002 A0.9998900000000001,0.9998900000000001 0 0 0 614.1400837402343,290.98144315185544 z" fill="#3f3d56" id="svg_40"/><path d="M875.2716637402343,661.4727831518554 h-192 a1,1 0 0 1 0,-2 h192 a1,1 0 0 1 0,2 z" fill="#ccc" id="svg_41"/><path d="M604.0560937402344,131.91228315185546 a11.22094,11.22094 0 0 0 -7.25,-5.1 a10.30111,10.30111 0 0 0 -1.6596700000000002,-0.21000000000000002 l-76.19043,-68.12 a9.01491,9.01491 0 0 0 -5.62988,-2.6900000000000004 a7.6698900000000005,7.6698900000000005 0 0 0 -1.27,-0.04000000000000001 a9.05493,9.05493 0 0 0 -5.96,15.48 l29.16992,25.43 l47.8999,41.75 a11.91555,11.91555 0 0 0 0.3501,2.33 a11.26607,11.26607 0 0 0 9.66992,8.37 a11.09212,11.09212 0 0 0 6.05029,-1 a11.40659,11.40659 0 0 0 3.87988,-2.9699999999999998 c0.10987000000000001,-0.13 0.21000000000000002,-0.25 0.31006000000000006,-0.39000000000000007 a11.29281,11.29281 0 0 0 0.6298900000000002,-12.84 z" fill="#ffb8b8" id="svg_42"/><path d="M473.73626374023434,197.56230315185547 l-0.7100000000000001,-28.86 l-0.6001000000000001,-23.95 l-0.41015,-16.76 l-0.81006,-32.67 a9.04565,9.04565 0 0 0 -15.71,-5.25 a6.92326,6.92326 0 0 0 -0.7500000000000001,0.9600000000000001 a8.935740000000001,8.935740000000001 0 0 0 -1.56006,6.05 l1.78027,47.67 l0.8901400000000002,23.95 l1.13965,30.55 a12.0475,12.0475 0 0 0 -0.8896500000000002,1.4100000000000001 a11.248,11.248 0 0 0 -0.7100000000000001,8.84 a11.31144,11.31144 0 0 0 15.55957,6.63 a11.30069,11.30069 0 0 0 2.78027,-18.57 z" fill="#ffb8b8" id="svg_43"/><path d="M542.3363637402343,115.81230315185547 l-7.07031,-19.15 l-11.43994,-31.02 a16.0055,16.0055 0 0 0 -9.9502,-9.68 c-0.17969000000000002,-0.06000000000000001 -0.36963,-0.12000000000000001 -0.5498000000000001,-0.17005 a15.984,15.984 0 0 0 -13.23975,1.82 l-38.53027,24.44 a16.09316,16.09316 0 0 0 -5.27,21.75 a276.323,276.323 0 0 0 15.73,24.19 c4.49023,6.11 12.85009,6.76 14.30029,16.76 h28.40967 l28.76025,-25.82 z" fill="#ccc" id="svg_44"/><circle cx="101.16464233398438" cy="326.68231201171875" r="23.171659469604492" fill="#a0616a" id="svg_45"/><path d="M158.05134374023436,310.7321031518555 q0.3425000000000001,0.27261 0.6639500000000002,0.5779400000000001 a10.38021,10.38021 0 0 1 -0.41708000000000006,15.48365 a9.72179,9.72179 0 0 1 -0.8138200000000001,0.61338 l1.56823,52.94493 a8.06132,8.06132 0 0 1 -5.545,7.867 l-0.09553000000000003,0.020520000000000004 l-42.98869,4.578 a8.89852,8.89852 0 1 1 -1.72218,-17.712790000000002 l30.64427,-2.69888 l5.29962,-45.851 a9.87574,9.87574 0 0 1 -0.9715499999999999,-0.99 a10.38,10.38 0 0 1 14.3778,-14.83273 z" fill="#a0616a" id="svg_46"/><polygon points="139.328 649.174 150.895 649.174 156.397 604.561 139.326 604.561 139.328 649.174" fill="#a0616a" id="svg_47"/><path d="M136.37818374023436,645.3978431518555 l22.778,-0.0009300000000000003 h0.0009200000000000004 a14.5157,14.5157 0 0 1 14.51609,14.51587 v0.47171 l-37.29436,0.0013900000000000004 z" fill="#2f2e41" id="svg_48"/><polygon points="24.366 633.182 34.304 639.099 61.857 603.582 47.189 594.849 24.366 633.182" fill="#a0616a" id="svg_49"/><path d="M23.762933740234388,628.4282931518554 l19.57164,11.65289 l0.0007900000000000002,0.00047000000000000015 a14.5157,14.5157 0 0 1 5.04582,19.89892 l-0.24134000000000003,0.40531000000000006 L16.095353740234373,641.3065431518555 z" fill="#2f2e41" id="svg_50"/><path d="M153.62393374023435,633.4166231518554 H140.67224374023436 a4.23772,4.23772 0 0 1 -4.22149,-3.79676 L123.39356374023436,506.8824731518555 a1.41541,1.41541 0 0 0 -2.6971600000000002,-0.43300000000000005 l-23.5554,52.15872 l-41.70358,68.00266 a4.26564,4.26564 0 0 1 -5.3289100000000005,1.66575 l-16.66024,-7.33 a4.24672,4.24672 0 0 1 -1.93478,-6.0641300000000005 l38.33707,-64.19208 l11.75766,-54.0852 c-3.69795,-23.455 12.155,-58.326 12.31575,-58.676140000000004 l0.07855000000000001,-0.17044000000000004 l43.66751,-17.06765 l0.21900000000000003,0.2681 c17.22117,56.51377 27.715,117.3322 19.96672,208.5678 A4.27417,4.27417 0 0 1 153.62393374023435,633.4166231518554 z" fill="#2f2e41" id="svg_51"/><path d="M92.2432637402344,443.47354315185544 l-0.20339000000000002,-0.42749000000000004 c-0.09719000000000004,-0.20454000000000003 -9.807,-20.68365 -17.292,-42.57146 a32.28512,32.28512 0 0 1 2.23858,-25.87344 a32.6374,32.6374 0 0 1 20.81263,-16.00426 h0 A32.677,32.677 0 0 1 135.72683374023438,378.1666331518555 c5.93722,14.84708 4.045,30.69452 2.26429,43.15723 l-0.03547,0.24967 l-0.22711000000000003,0.10872000000000002 z" fill="#3f3d56" id="svg_52"/><path d="M129.25961374023439,313.5931231518555 H92.46575374023439 V297.55477315185544 c8.07584,-3.20838 15.97847,-5.93693 20.75551,0 a16.03844,16.03844 0 0 1 16.03835,16.03833 z" fill="#2f2e41" id="svg_53"/><path d="M90.42872374023437,294.7244731518555 c-21.99607,0 -28.15279,27.57121 -28.15279,43.12552 c0,8.67446 3.923,11.777 10.08753,12.8268 l2.17708,-11.611 l5.09905,12.11064 c1.7316200000000002,0.008640000000000002 3.55077,-0.024880000000000003 5.43671,-0.05989000000000001 l1.72886,-3.55986 l3.85527,3.496 c15.44087,0.023000000000000007 27.92061,2.27382 27.92061,-13.20269 C118.58104374023435,322.2956831518555 113.18165374023437,294.7244731518555 90.42872374023437,294.7244731518555 z" fill="#2f2e41" id="svg_54"/><path d="M193.00000374023438,661.4727831518554 h-192 a1,1 0 1 1 0,-2 h192 a1,1 0 0 1 0,2 z" fill="#ccc" id="svg_55"/><path d="M196.61024374023435,332.4727831518555 h-43 a9.51081,9.51081 0 0 1 -9.5,-9.5 v-43 a9.51081,9.51081 0 0 1 9.5,-9.5 h43 a9.51081,9.51081 0 0 1 9.5,9.5 v43 A9.51081,9.51081 0 0 1 196.61024374023435,332.4727831518555 z" fill="#fff" id="svg_56"/><path d="M196.61024374023435,332.4727831518555 h-43 a9.51081,9.51081 0 0 1 -9.5,-9.5 v-43 a9.51081,9.51081 0 0 1 9.5,-9.5 h43 a9.51081,9.51081 0 0 1 9.5,9.5 v43 A9.51081,9.51081 0 0 1 196.61024374023435,332.4727831518555 zm-43,-60 a7.50836,7.50836 0 0 0 -7.5,7.5 v43 a7.50836,7.50836 0 0 0 7.5,7.5 h43 a7.50836,7.50836 0 0 0 7.5,-7.5 v-43 a7.50836,7.50836 0 0 0 -7.5,-7.5 z" fill="#3f3d56" id="svg_57"/><path d="M189.11024374023435,314.9727831518555 h-28 a3.00328,3.00328 0 0 1 -3,-3 v-21 a3.00328,3.00328 0 0 1 3,-3 h7.88232 a2.98117,2.98117 0 0 1 2.55518,1.42724 l2.19824,3.57276 h15.36426 a3.00328,3.00328 0 0 1 3,3 v16 A3.00328,3.00328 0 0 1 189.11024374023435,314.9727831518555 z" fill="#eb1a1a" id="svg_58" class="selected" fill-opacity="1"/><path d="M188.1994737402344,325.5819331518555 q0.20986000000000002,0.38415000000000005 0.38766000000000006,0.79029 a10.38021,10.38021 0 0 1 -6.39269,14.10854 a9.72022,9.72022 0 0 1 -0.98807,0.24953000000000003 l-19.09943,49.40482 a8.06134,8.06134 0 0 1 -8.16324,5.09887 l-0.09600000000000003,-0.018160000000000003 l-41.39664,-12.46211 a8.898530000000001,8.898530000000001 0 1 1 5.28606,-16.99313 l29.29033,9.40382 l22.6764,-40.20175 a9.87622,9.87622 0 0 1 -0.51127,-1.28942 a10.38005,10.38005 0 0 1 19.0069,-8.0913 z" fill="#a0616a" id="svg_59"/></g></svg>