<svg xmlns="http://www.w3.org/2000/svg" data-name="Layer 1" width="1121.80595" height="699.0818"><rect id="backgroundrect" width="100%" height="100%" x="0" y="0" fill="none" stroke="none"/><title>creative team</title><g class="currentLayer" style=""><title>Layer 1</title><circle cx="852.8058471679688" cy="367.9994201660156" r="253.99989318847656" fill="#f2f2f2" id="svg_1"/><circle cx="137.80596923828125" cy="97.00003051757812" r="97.00003051757812" fill="#ff6584" id="svg_2"/><circle cx="311.80584716796875" cy="266.9994201660156" r="253.99989318847656" fill="#f2f2f2" id="svg_3"/><ellipse cx="299.8059387207031" cy="520" rx="279" ry="15" fill="#3f3d56" id="svg_4"/><ellipse cx="243.8059539794922" cy="520.5172119140625" rx="209" ry="10.344829559326172" opacity="0.1" id="svg_5"/><ellipse cx="842.8059692382812" cy="624.5" rx="279" ry="16.5" fill="#3f3d56" id="svg_6"/><ellipse cx="786.8059692382812" cy="625.0689697265625" rx="209" ry="11.37930965423584" opacity="0.1" id="svg_7"/><ellipse cx="400.9029846191406" cy="586" rx="178.04348754882812" ry="9" fill="#3f3d56" id="svg_8"/><ellipse cx="85.90296936035156" cy="556" rx="85.90296936035156" ry="4.342350006103516" fill="#3f3d56" id="svg_9"/><ellipse cx="952.9268798828125" cy="691" rx="159.8791046142578" ry="8.08180046081543" fill="#3f3d56" id="svg_10"/><rect x="615.8059692382812" y="433" width="320" height="190" fill="#3f3d56" id="svg_11"/><circle cx="718.8059692382812" cy="530" r="72" fill="#eb1a1a" id="svg_12" class="" fill-opacity="1"/><rect x="812.8059692382812" y="463" width="24" height="24" fill="#eb1a1a" id="svg_13" class="" fill-opacity="1"/><rect x="842.8059692382812" y="463" width="24" height="24" fill="#e84141" opacity="0.5" id="svg_14" class="" fill-opacity="1"/><rect x="872.8059692382812" y="463" width="24" height="24" fill="#f6e05e" opacity="0.2" id="svg_15"/><rect x="812.8059692382812" y="493" width="24" height="24" fill="#2f2e41" id="svg_16"/><rect x="842.8059692382812" y="493" width="24" height="24" fill="#2f2e41" opacity="0.5" id="svg_17"/><rect x="872.8059692382812" y="493" width="24" height="24" fill="#2f2e41" opacity="0.2" id="svg_18"/><rect x="812.8059692382812" y="523" width="24" height="24" fill="#ff6584" id="svg_19"/><rect x="842.8059692382812" y="523" width="24" height="24" fill="#ff6584" opacity="0.5" id="svg_20"/><rect x="872.8059692382812" y="523" width="24" height="24" fill="#ff6584" opacity="0.2" id="svg_21"/><path d="M718.8059693603516,458.00000118408207 v144 c39.76453,0 74,-32.23553 74,-72 S758.5704693603516,458.00000118408207 718.8059693603516,458.00000118408207 z" fill="#3f3d56" opacity="0.5" id="svg_22"/><path d="M1004.3059693603516,446.50000118408207 s42,19 27,41 s-60,64 -61,73 s-7,17 -7,17 s-20,-21 -18,-23 s22,-21 23,-26 s31,-44 31,-44 l-27,-24 z" fill="#ffb9b9" id="svg_23"/><path d="M1004.3059693603516,446.50000118408207 s42,19 27,41 s-60,64 -61,73 s-7,17 -7,17 s-20,-21 -18,-23 s22,-21 23,-26 s31,-44 31,-44 l-27,-24 z" opacity="0.1" id="svg_24"/><path d="M951.3059693603516,488.50000118408207 s29,12 27,31 s35,73 35,73 s4,13 3,17 s26,3 26,3 v-9 s-21,-36 -23,-46 s-14,-49 -14,-49 s-4,-35 -24,-35 A37.5,37.5 0 0 0 951.3059693603516,488.50000118408207 z" fill="#ffb9b9" id="svg_25"/><path d="M952.8059693603516,398.000001184082 s60,49 58,53 s-31,19 -36,20 s-40.37795,-73 -40.37795,-73 z" fill="#2f2e41" id="svg_26"/><path d="M952.8059693603516,398.000001184082 s60,49 58,53 s-31,19 -36,20 s-40.37795,-73 -40.37795,-73 z" opacity="0.1" id="svg_27"/><path d="M887.8059693603516,408.000001184082 s-6,27 10,38 s43,54 46,54 s46,-23 44,-27 s-24,-39 -24,-39 l-7,-37 S895.8059693603516,395.000001184082 887.8059693603516,408.000001184082 z" fill="#2f2e41" id="svg_28"/><path d="M952.8059693603516,320.000001184082 l9,58 l16,41 s24,25 10,27 s-22,-27 -22,-27 l-13,-24 z" fill="#ffb9b9" id="svg_29"/><path d="M952.8059693603516,320.000001184082 l9,58 l16,41 s24,25 10,27 s-22,-27 -22,-27 l-13,-24 z" opacity="0.1" id="svg_30"/><path d="M919.3059693603516,255.500001184082 s0,21 -7,23 s28,29 28,29 s-4,-35 10,-44 z" fill="#ffb9b9" id="svg_31"/><path d="M919.3059693603516,255.500001184082 s0,21 -7,23 s28,29 28,29 s-4,-35 10,-44 z" opacity="0.1" id="svg_32"/><circle cx="935.3059692382812" cy="249.5" r="23" fill="#ffb9b9" id="svg_33"/><path d="M936.3059693603516,297.500001184082 s-21,-26 -24,-25 s-25,23 -27,30 s-6,57 -3,67 s3,36 2,38 s-7,7 -1,7 s27,-15 41,-12 s33,-1 34,-3 s-1,-54 0,-58 s-2,-24 -3,-28 s-1,-20 -11,-24 l-4.264,-0.42136000000000007 l-0.23882,9.89157 z" fill="#eb1a1a" id="svg_34" class="" fill-opacity="1"/><path d="M892.3059693603516,349.500001184082 s2,31 17,44 s47,35 49,39 s21,25 25,16 a14.96181,14.96181 0 0 0 0.8019400000000001,-8.86675 a22.05314,22.05314 0 0 0 -9.90344,-14.41279 l-8.8985,-5.72046 l-44,-46 l-2,-24 z" fill="#ffb9b9" id="svg_35"/><path d="M949.8059693603516,551.0000011840821 s-11.5,-2.5 -15.5,4.5 s4,26 4,26 s23,48 27,42 s-3,-28 -3,-28 s10,-22 6,-23 S949.8059693603516,563.0000011840821 949.8059693603516,551.0000011840821 z" fill="#2f2e41" id="svg_36"/><path d="M1020.3059693603516,608.5000011840821 s-6,-3 -7,0 s-7,18 0,20 s76,4 74,0 s-13,-9 -20,-11 s-25,-17 -25,-17 S1032.3059693603516,613.5000011840821 1020.3059693603516,608.5000011840821 z" fill="#2f2e41" id="svg_37"/><path d="M958.4751793603516,231.24574118408202 a6.15938,6.15938 0 0 0 -2.6714200000000003,-3.48695 a14.13565,14.13565 0 0 0 -0.5640000000000001,-4.6016900000000005 c-1.4695200000000002,-4.3444400000000005 -4.9507900000000005,-4.09542 -8.23546,-6.01618 c-1.42509,-0.83335 -1.3370700000000002,-1.56988 -2.0789400000000002,-2.9386400000000004 a10.90653,10.90653 0 0 0 -4.20254,-4.28786 c-2.10732,-1.34264 -4.3318,-2.72537 -6.82474,-2.8953 c-5.239,-0.35709 -9.25573,4.57054 -14.263,6.152 c-2.2071,0.6970000000000002 -4.57869,0.7257800000000001 -6.79744,1.38476 s-4.43236,2.23247 -4.763,4.52325 c-0.15265,1.05758 0.11666000000000003,2.14252 -0.03817000000000001,3.1998100000000003 c-0.3078100000000001,2.10139 -2.15145,3.57314 -3.38563,5.30155 c-2.7292300000000003,3.8221600000000002 -2.41707,9.22181 -0.23451000000000002,13.38047 a18.80958,18.80958 0 0 0 1.5737900000000002,2.46278 a15.14954,15.14954 0 0 0 1.6616700000000002,5.62586 c2.18256,4.15865 5.93822,7.26624 9.86148,9.84805 a23.277,23.277 0 0 1 -0.58191,-4.19944 a2.89682,2.89682 0 0 1 0.17857,-1.39142 c0.4369100000000001,-0.91332 1.59141,-1.15622 2.47166,-1.65643 c1.8232,-1.03606 2.53817,-3.32891 2.59089,-5.42527 s-0.39154000000000005,-4.19618 -0.17190000000000003,-6.28163 a3.43233,3.43233 0 0 1 1.175,-2.52484 a4.05855,4.05855 0 0 1 2.21524,-0.52815 c3.73556,-0.15240000000000004 7.6386400000000005,-0.22100000000000003 10.93363,-1.98755 a16.20347,16.20347 0 0 1 3.40312,-1.7215 c2.80021,-0.7302200000000001 5.66219,1.23245 7.276,3.63455 s2.41844,5.26063 3.90742,7.74207 s4.0613,4.69432 6.94016,4.40032 a1.15205,1.15205 0 0 0 0.8597600000000001,-0.3823100000000001 a1.28879,1.28879 0 0 0 0.15838000000000002,-0.7324900000000001 l0.16085000000000002,-11.00458 A16.63363,16.63363 0 0 0 958.4751793603516,231.24574118408202 z" fill="#2f2e41" id="svg_38"/><path d="M901.3059693603516,298.500001184082 s22,10 21,31 s6,23 -11,25 s-21,0 -22,2 s-7,-46 -3,-51 S901.3059693603516,298.500001184082 901.3059693603516,298.500001184082 z" fill="#eb1a1a" id="svg_39" class="" fill-opacity="1"/><circle cx="458.8059387207031" cy="97" r="32" fill="#2f2e41" id="svg_40"/><path d="M480.3059693603516,447.50000118408207 l-18,49 s-15,12 -6,16 s27,-4 27,-4 l14,-36 l-2,-25 z" fill="#2f2e41" id="svg_41"/><path d="M480.3059693603516,447.50000118408207 l-18,49 s-15,12 -6,16 s27,-4 27,-4 l14,-36 l-2,-25 z" opacity="0.1" id="svg_42"/><path d="M481.8059693603516,157.000001184082 l15,2 s7,55 4,59 s-18,20 -24,16 S481.8059693603516,157.000001184082 481.8059693603516,157.000001184082 z" fill="#eb1a1a" id="svg_43" class="selected" fill-opacity="1"/><path d="M338.3059693603516,257.500001184082 s-21,9 -25,10 s-10,11 -3,13 s34,-18 34,-18 z" fill="#a0616a" id="svg_44"/><path d="M487.3059693603516,467.50000118408207 l11,41 s1,15 6,16 s20,-5 20,-7 s-6,-18 -6,-18 s0,-12 -6,-17 s-11.40551,-21.74959 -11.40551,-21.74959 z" fill="#2f2e41" id="svg_45"/><path d="M501.3059693603516,373.500001184082 c2.02,4.71 1.77,38.88 -0.43994000000000005,61.62 c-1.07007,11.05 -2.6000900000000002,19.4 -4.56006,20.38 l-14.33007,-3.58 l-5.66993,-1.42 l-0.15000000000000002,-12.44 l-0.8500000000000001,-68.56 l-17,-71 v-18 l43,4 l6.82007,10.71 l0.17993000000000003,0.29000000000000004 S498.3059693603516,366.500001184082 501.3059693603516,373.500001184082 z" fill="#2f2e41" id="svg_46"/><path d="M492.3059693603516,395.500001184082 c2.14,3.21 5.71,22.43 8.56006,39.62 c-1.07007,11.05 -2.6000900000000002,19.4 -4.56006,20.38 l-14.33007,-3.58 c-0.22000000000000003,-0.46 -0.43994000000000005,-0.9400000000000001 -0.6699300000000001,-1.42 c-1.83007,-3.84 -3.55,-8.08 -5.15,-12.44 l-0.8500000000000001,-68.56 l-17,-71 v-18 l43,4 l6.82007,10.71 l-39.82007,-2.71 l9,39 l11,41 S488.3059693603516,389.500001184082 492.3059693603516,395.500001184082 z" opacity="0.1" id="svg_47"/><path d="M421.3059693603516,240.500001184082 s-14,31 6,74 a874.08921,874.08921 0 0 1 33,82 s7,33 17,54 s8,22 8,22 l16,-9 s-9,-62 -13,-68 s-4,-23 -4,-23 l-11,-41 l-9,-39 l44,3 s0,-57 -20,-68 z" fill="#2f2e41" id="svg_48"/><path d="M437.8059693603516,112.00000118408204 s0,16 -5,17 s-15,1 -18,6 s23,71 23,71 l27,-17 l9,-45 s-13,-8 -13,-12 v-18 z" fill="#a0616a" id="svg_49"/><path d="M437.8059693603516,112.00000118408204 s0,16 -5,17 s-15,1 -18,6 s23,71 23,71 l27,-17 l9,-45 s-13,-8 -13,-12 v-18 z" opacity="0.1" id="svg_50"/><circle cx="453.3059387207031" cy="105.5" r="24" fill="#a0616a" id="svg_51"/><path d="M440.8059693603516,186.000001184082 s-9,-57 -11,-57 s-30,6 -32,7 s-9,10 -9,10 l14,40 s6,28 10,33 s12,19 8,21 s-8,5 -4,5 s37,-6 39,-3 s35,-11 35,-12 s-4,-48 -4,-48 l10,-23 l-30,-21 z" fill="#eb1a1a" id="svg_52" class="" fill-opacity="1"/><path d="M398.8059693603516,141.00000118408204 l-10,5 s-28,64 -30,65 s-12,20 -13,24 s-3,17 -6,19 a51.953,51.953 0 0 1 -5,3 s6,10 9,10 s13,-14 13,-14 s22,14 28,3 s21,-81 21,-81 z" fill="#eb1a1a" id="svg_53" class="" fill-opacity="1"/><path d="M477.3059693603516,171.500001184082 s-14,-34 -22,-30 s6,28 15,32 z" fill="#a0616a" id="svg_54"/><path d="M463.3059693603516,172.500001184082 l14.03051,-3.1717400000000002 L480.3059693603516,184.500001184082 s13,23 10,33 s-21,26 -27,17 s-11,-23 -7,-31 S466.3059693603516,176.500001184082 463.3059693603516,172.500001184082 z" opacity="0.1" id="svg_55"/><path d="M466.3059693603516,170.500001184082 l14.03051,-3.1717400000000002 L483.3059693603516,182.500001184082 s13,23 10,33 s-21,26 -27,17 s-11,-23 -7,-31 S469.3059693603516,174.500001184082 466.3059693603516,170.500001184082 z" fill="#eb1a1a" id="svg_56" class="" fill-opacity="1"/><ellipse cx="574.1395568847656" cy="652.2366027832031" rx="11.5" ry="24" transform="rotate(-64.89869689941406 75.23657226562506,461.2774963378907) " fill="#2f2e41" id="svg_57"/><circle cx="477.8059387207031" cy="70" r="14" fill="#2f2e41" id="svg_58"/><path d="M464.8059693603516,65.00000118408204 a13.99971,13.99971 0 0 1 12.5,-13.91724 a14,14 0 1 0 0,27.83448 A13.99971,13.99971 0 0 1 464.8059693603516,65.00000118408204 z" fill="#2f2e41" id="svg_59"/><rect x="64.80594635009766" y="277" width="350" height="243" fill="#3f3d56" id="svg_60"/><rect x="92.80594635009766" y="301" width="46" height="46" fill="#f2f2f2" id="svg_61"/><rect x="92.80594635009766" y="376" width="46" height="46" fill="#eb1a1a" id="svg_62" class="" fill-opacity="1"/><rect x="92.80594635009766" y="451" width="46" height="46" fill="#f2f2f2" id="svg_63"/><rect x="160.8059539794922" y="315.5" width="219" height="4" fill="#f2f2f2" id="svg_64"/><rect x="160.8059539794922" y="328.5" width="68" height="4" fill="#f2f2f2" id="svg_65"/><rect x="160.8059539794922" y="390.5" width="219" height="4" fill="#f2f2f2" id="svg_66"/><rect x="160.8059539794922" y="403.5" width="68" height="4" fill="#f2f2f2" id="svg_67"/><rect x="160.8059539794922" y="465.5" width="219" height="4" fill="#f2f2f2" id="svg_68"/><rect x="160.8059539794922" y="478.5" width="68" height="4" fill="#f2f2f2" id="svg_69"/><path d="M989.8059693603516,668.9326311840821 c0,20.35636 -12.09988,27.46356 -27.02822,27.46356 c-0.3457800000000001,0 -0.6915500000000001,-0.005000000000000001 -1.03485,-0.01246 c-0.6915700000000001,-0.014920000000000001 -1.37816,-0.04725000000000001 -2.05479,-0.09451000000000002 c-13.47306,-0.9527700000000001 -23.93856,-8.42565 -23.93856,-27.35659 c0,-19.58768 25.030640000000002,-44.30737 26.91626,-46.14076 l0.002490000000000001,-0.002490000000000001 c0.07215,-0.07213000000000001 0.10945,-0.10700000000000001 0.10945,-0.10700000000000001 S989.8059693603516,648.5787511840821 989.8059693603516,668.9326311840821 z" fill="#eb1a1a" id="svg_70" class="" fill-opacity="1"/><path d="M961.7926293603516,693.2816511840821 l9.88588,-13.81138 l-9.91077,15.32884 l-0.024870000000000003,1.5846200000000001 c-0.6915700000000001,-0.014920000000000001 -1.37816,-0.04725000000000001 -2.05479,-0.09451000000000002 l1.0647,-20.36384 l-0.007450000000000002,-0.15920000000000004 l0.017410000000000005,-0.02737000000000001 l0.10200000000000001,-1.92543 l-9.93562,-15.36616 l9.96547,13.92333 l0.024880000000000003,0.40800000000000003 l0.80351,-15.38607 l-8.50525,-15.8786 l8.60972,13.17952 l0.8383400000000001,-31.90151 l0.002490000000000001,-0.10945 v0.10700000000000001 l-0.13931000000000002,25.155 l8.46794,-9.97295 l-8.50277,12.1397 l-0.22388000000000002,13.77655 l7.9082,-13.22182 l-7.94054,15.24924 l-0.12438,7.65945 l11.47549,-18.40357 l-11.52027,21.0753 z" fill="#3f3d56" id="svg_71"/><path d="M112.80596936035155,529.9326311840821 c0,20.35636 -12.09988,27.46356 -27.02822,27.46356 c-0.3457800000000001,0 -0.6915500000000001,-0.005000000000000001 -1.03485,-0.01246 c-0.6915700000000001,-0.014920000000000001 -1.37816,-0.04725000000000001 -2.05479,-0.09451000000000002 c-13.47306,-0.9527700000000001 -23.93856,-8.42565 -23.93856,-27.35659 c0,-19.58768 25.030640000000002,-44.30737 26.91626,-46.14076 l0.002490000000000001,-0.002490000000000001 c0.07215,-0.07213000000000001 0.10945,-0.10700000000000001 0.10945,-0.10700000000000001 S112.80596936035155,509.5787511840821 112.80596936035155,529.9326311840821 z" fill="#eb1a1a" id="svg_72" class="" fill-opacity="1"/><path d="M84.79262936035157,554.2816511840821 l9.88588,-13.81138 l-9.91077,15.32884 l-0.024870000000000003,1.5846200000000001 c-0.6915700000000001,-0.014920000000000001 -1.37816,-0.04725000000000001 -2.05479,-0.09451000000000002 l1.0647,-20.36384 l-0.007450000000000002,-0.15920000000000004 l0.017410000000000005,-0.02737000000000001 l0.10200000000000001,-1.92543 l-9.93562,-15.36616 l9.96547,13.92333 l0.024880000000000003,0.40800000000000003 l0.80351,-15.38607 l-8.50525,-15.8786 l8.60972,13.17952 l0.8383400000000001,-31.90151 l0.002490000000000001,-0.10945 v0.10700000000000001 l-0.13931000000000002,25.155 l8.46794,-9.97295 l-8.50277,12.1397 l-0.22388000000000002,13.77655 l7.9082,-13.22182 l-7.94054,15.24924 l-0.12438,7.65945 l11.47549,-18.40357 l-11.52027,21.0753 z" fill="#3f3d56" id="svg_73"/></g></svg>