<svg xmlns="http://www.w3.org/2000/svg" data-name="Layer 1" width="913" height="441.86856"><rect id="backgroundrect" width="100%" height="100%" x="0" y="0" fill="none" stroke="none"/><g class="currentLayer" style=""><title>Layer 1</title><path d="M124.21816999999999,353.2748803955078 h686.644 V5.664460395507803 H124.21816999999999 z" fill="#fff" id="svg_1"/><path d="M816.52639,358.9392803955078 H118.55381 V3.9550781139041646e-7 H816.52639 zM129.88224000000002,347.6108003955078 H805.198 V11.328430395507809 H129.88224000000002 z" fill="#e5e5e5" id="svg_2"/><polygon points="444.691 79.203 444.691 197.186 273.183 197.186 241.498 235.203 245.116 197.186 229.699 197.186 229.699 79.203 444.691 79.203" fill="#eb1a1a" id="svg_3" class="" fill-opacity="1"/><polygon points="548.482 86.203 548.482 161.849 658.445 161.849 678.76 186.223 676.441 161.849 686.325 161.849 686.325 86.203 548.482 86.203" fill="#e76767" id="svg_4" class="" fill-opacity="1"/><polygon points="94.66 430.711 104.581 430.711 109.301 392.445 94.659 392.445 94.66 430.711" fill="#ffb7b7" id="svg_5"/><path d="M92.12973,427.4722803955078 l19.53785,-0.0007900000000000002 h0.0007900000000000002 a12.45172,12.45172 0 0 1 12.451,12.45085 v0.40461 l-31.9891,0.0011900000000000003 z" fill="#2f2e41" id="svg_6"/><polygon points="213.852 430.385 223.486 428.014 218.925 389.729 204.707 393.228 213.852 430.385" fill="#ffb7b7" id="svg_7"/><path d="M210.62111,427.8448203955078 l18.97173,-4.66915 l0.0007600000000000003,-0.00019000000000000006 a12.45172,12.45172 0 0 1 15.06541,9.11513 l0.09668000000000003,0.3928900000000001 l-31.06222,7.64466 z" fill="#2f2e41" id="svg_8"/><path d="M88.55927,421.5870703955078 l2.06089,-10.54431 s3.7936,-40.71323 31.01915,-81.34561 l8.86181,-44.139 s-2.6318200000000003,-33.41037 22.77,-51.49548 l7.83137,-5.39476 l27.45708,1.5738 L194.901,264.9599803955078 l12.77749,82.14755 s3.2974200000000002,0.30909000000000003 4.534,9.80866 a28.5681,28.5681 0 0 1 4.32786,13.2417 s6.5391,18.0395 8.29085,31.32142 l-0.20609000000000002,12.99648 l-13.80794,7.3565000000000005 l-28.77919,-81.38962 l-20.58408,-45.50165 s-9.90723,32.05875 -25.082,59.523 c0,0 -20.78443,44.98686 -24.93672,54.12656 l-4.534,14.95821 z" fill="#2f2e41" id="svg_9"/><circle cx="180.36314392089844" cy="139.18186950683594" r="19.6253604888916" fill="#ffb7b7" id="svg_10"/><circle cx="180.36314392089844" cy="139.18186950683594" r="19.6253604888916" fill="#ffb8b8" id="svg_11"/><path d="M153.32855999999998,234.27215039550782 l6.47861,-16.182760000000002 a72.785,72.785 0 0 1 0.80076,-45.38259 l0,0 l1.23945,-1.02072 c10.798259999999999,-8.89269 20.2758,-7.27372 29.07077,3.60428 l0,0 a24.316,24.316 0 0 0 4.92121,4.64016 c3.87888,2.72145 10.03274,17.507 1.90744,26.17395 l-6.50023,37.918 C191.93111,264.9576703955078 176.73955999999998,257.0745903955078 153.32855999999998,234.27215039550782 z" fill="#3f3d56" id="svg_12"/><path d="M246.22260999999997,212.2620103955078 a7.18525,7.18525 0 0 0 -10.73711,2.47079 l-16.37,-1.27452 l-3.20082,9.7591 l23.14288,1.47518 a7.22419,7.22419 0 0 0 7.165,-12.43055 z" fill="#ffb7b7" id="svg_13"/><path d="M230.54964999999999,228.0932803955078 l-46.646,-8.70963 L168.73207000000002,193.9472803955078 a10.83369,10.83369 0 0 1 20.38225,-7.35114 l7.116,19.67807 l36.89044,6.10629 z" fill="#ccc" id="svg_14"/><circle cx="145.38082885742188" cy="116.05535888671875" r="18.8281192779541" fill="#2f2e41" id="svg_15"/><path d="M129.14058999999997,131.6462803955078 a18.82911,18.82911 0 0 0 29.07561,-9.886330000000001 a18.82916,18.82916 0 1 1 -36.7286,-7.7212700000000005 A18.82219,18.82219 0 0 0 129.14058999999997,131.6462803955078 z" fill="#2f2e41" id="svg_16"/><path d="M203.44468,131.66718039550778 c-3.2869,-5.88451 -4.5446,-8.34263 -8.78268,-11.92092 c-3.7477300000000002,-3.16464 -8.35758,-4.094 -12.0758,-1.09544 a22.26731,22.26731 0 1 0 13.43551,20.43933 a22.44938,22.44938 0 0 0 -0.15172000000000002,-2.51779 C199.10199999999998,136.1184503955078 200.21266000000003,132.12108039550782 203.44468,131.66718039550778 z" fill="#2f2e41" id="svg_17"/><path d="M782.24878,272.5252803955078 a8.8934,8.8934 0 0 1 10.85791,-8.25059 l11.76082,-16.57424 l11.81526,4.69045 l-16.93729,23.17277 a8.94159,8.94159 0 0 1 -17.4967,-3.03839 z" fill="#a0616a" id="svg_18"/><path d="M795.15018,258.2714803955078 l20.91036,-35.1682 l-8.51929,-22.71812 l11.60295,-30.94209 l0.42791000000000007,0.18358000000000002 c0.28057000000000004,0.12021000000000001 6.87342,3.06218 7.85053,13.598 l13.33389,41.90622 l-35.58635,46.16619 z" fill="#3f3d56" id="svg_19"/><path d="M681.58465,128.9821503955078 a8.89341,8.89341 0 0 1 7.3864,11.46332 l15.61532,13.00708 l-5.58993,11.41724 l-21.79386,-18.67823 a8.94159,8.94159 0 0 1 4.38207,-17.20941 z" fill="#a0616a" id="svg_20"/><path d="M694.79832,142.94699039550784 l33.44622,23.56685 l23.30879,-6.73731 l29.95237,13.96056 l-0.21611000000000002,0.41243 c-0.14155,0.27044 -3.58444,6.61609 -14.164250000000001,6.77568 l-42.8117,10.05394 l-43.27659,-39.04923 z" fill="#3f3d56" id="svg_21"/><polygon points="755.999 429.531 744.371 429.531 738.84 384.681 756.001 384.682 755.999 429.531" fill="#a0616a" id="svg_22"/><path d="M736.06574,426.20817h22.42455a0,0,0,0,1,0,0v14.11915a0,0,0,0,1,0,0H721.9466a0,0,0,0,1,0,0v0A14.11914,14.11914,0,0,1,736.06574,426.20817Z" fill="#2f2e41" id="svg_23"/><polygon points="802.472 429.531 790.844 429.531 785.313 384.681 802.474 384.682 802.472 429.531" fill="#a0616a" id="svg_24"/><path d="M782.5388,426.20817h22.42455a0,0,0,0,1,0,0v14.11915a0,0,0,0,1,0,0H768.41966a0,0,0,0,1,0,0v0A14.11914,14.11914,0,0,1,782.5388,426.20817Z" fill="#2f2e41" id="svg_25"/><polygon points="806.607 265.827 805.659 332.217 804.71 419.472 783.845 417.575 773.412 297.125 760.134 417.575 738.593 417.575 736.423 296.176 744.011 269.62 806.607 265.827" fill="#2f2e41" id="svg_26"/><path d="M741.93112,270.0254603955078 l-3.1787,-0.13757 L753.51715,188.55128039550783 l-6.04538,-24.58424 a5.38014,5.38014 0 0 1 3.33451,-6.32052 l10.87712,-4.07857 l3.8427000000000002,-10.5679 l30.31888,3.267 l0.74558,8.25912 c3.28547,1.05371 30.34081,10.06405 28.474,20.33078 c-1.84247,10.13349 -12.72133,42.01514 -13.27379,43.63086 l-1.90518,45.72223 l-0.23435,0.11717000000000002 c-0.28209,0.14105 -21.17987,10.41645 -43.88279,10.41472 A57.72326,57.72326 0 0 1 741.93112,270.0254603955078 z" fill="#3f3d56" id="svg_27"/><circle cx="779.4973754882812" cy="115.94052124023438" r="21.829750061035156" fill="#a0616a" id="svg_28"/><path d="M797.17941,137.07233039550783 c-4.16023,4.43154 -11.88634,2.05259 -12.428420000000001,-4.00152 a7.31372,7.31372 0 0 1 0.009210000000000003,-1.4125 c0.2798800000000001,-2.6817100000000003 1.82917,-5.11638 1.4580600000000001,-7.94788 a4.168,4.168 0 0 0 -0.7627800000000001,-1.95112 c-3.31517,-4.4393 -11.09729,1.98558 -14.226,-2.03318 c-1.91848,-2.46422 0.3366700000000001,-6.344 -1.13554,-9.09818 c-1.94307,-3.6350700000000002 -7.69838,-1.8418800000000002 -11.30757,-3.8326200000000004 c-4.01566,-2.21495 -3.77548,-8.37612 -1.13209,-12.12366 c3.22372,-4.57028 8.87592,-7.009 14.457699999999999,-7.36044 s11.12511,1.1574200000000001 16.33621,3.18824 c5.92086,2.30743 11.79224,5.49632 15.43586,10.70255 c4.431,6.33133 4.85743,14.84321 2.6413900000000003,22.24651 C805.17737,127.95203039550779 800.57668,133.4535103955078 797.17941,137.07233039550783 z" fill="#2f2e41" id="svg_29"/><polygon points="560.665 423.5 563.908 415.158 533.276 398.679 528.489 410.991 560.665 423.5" fill="#ffb8b8" id="svg_30"/><path d="M578.04079,401.73857039550785 a11.226890000000001,11.226890000000001 0 0 0 -14.53887,6.39937 l-2.18783,5.62343 l-3.37289,8.68013 l-0.82454,2.12833 l10.80888,4.20464 l10.4551,-26.901 z" fill="#2f2e41" id="svg_31"/><path d="M557.94249,407.4460803955078 l-1.41053,3.74034 l-3.52007,9.3358 l-0.08444000000000002,0.23349000000000003 c-8.96836,1.15233 -18.8,-1.10674 -27.8936,-4.61616 a113.381,113.381 0 0 1 -10.67626,-4.764 c-5.14253,-2.5984 -9.747,-5.34082 -13.42032,-7.68633 c-5.53062,-3.54965 -8.95043,-6.21492 -8.95043,-6.21492 s-0.9034599999999999,0.81642 -2.53829,2.21645 c-2.1912000000000003,1.8748200000000002 -5.69255,4.80248 -10.12763,8.24872 q-2.5377400000000003,1.98576 -5.44951,4.15412 c-14.30942,10.6138 -32.67293,-17.70768 -32.67293,-17.70768 s5.16465,-3.28808 6.51388,-3.92653 c4.34454,-2.05545 14.55117,-6.90558 23.35683,-11.21579 c4.53659,-2.224 8.696,-4.309 11.48859,-5.7909500000000005 c9.88883,-5.26494 22.18139,4.69754 22.18139,4.69754 z" fill="#2f2e41" id="svg_32"/><path d="M557.94249,407.4460803955078 l-1.41053,3.74034 l-3.52007,9.3358 l-0.08444000000000002,0.23349000000000003 c-8.96836,1.15233 -18.8,-1.10674 -27.8936,-4.61616 a113.381,113.381 0 0 1 -10.67626,-4.764 c-5.14253,-2.5984 -9.747,-5.34082 -13.42032,-7.68633 c-5.53062,-3.54965 -8.95043,-6.21492 -8.95043,-6.21492 s-0.9034599999999999,0.81642 -2.53829,2.21645 c-2.1912000000000003,1.8748200000000002 -5.69255,4.80248 -10.12763,8.24872 q-2.5377400000000003,1.98576 -5.44951,4.15412 c-14.30942,10.6138 -32.67293,-17.70768 -32.67293,-17.70768 s5.16465,-3.28808 6.51388,-3.92653 c4.34454,-2.05545 14.55117,-6.90558 23.35683,-11.21579 c4.53659,-2.224 8.696,-4.309 11.48859,-5.7909500000000005 c9.88883,-5.26494 22.18139,4.69754 22.18139,4.69754 z" opacity="0.14" id="svg_33"/><path d="M414.81284000000005,328.9303303955078 H372.47107000000005 a3.28884,3.28884 0 0 1 -3.28513,-3.28514 V307.3944303955078 a24.456,24.456 0 1 1 48.912,0 v18.25076 A3.28884,3.28884 0 0 1 414.81284000000005,328.9303303955078 z" fill="#2f2e41" id="svg_34"/><path d="M455.07955000000004,351.85460039550776 a6.84543,6.84543 0 0 0 -5.24563,9.092 L438.32023000000004,371.5362803955078 l4.72879,8.56639 l16.04952,-15.183 a6.88257,6.88257 0 0 0 -4.019,-13.065 z" fill="#ffb8b8" id="svg_35"/><path d="M420.43547,400.0012803955078 q-0.78011,0 -1.56254,-0.06737000000000001 a18.39628,18.39628 0 0 1 -14.81787,-9.89569 l-18.44592,-35.50343 a10.187,10.187 0 0 1 17.61555,-10.19476 l17.01758,38.1833 l23.156,-18.814329999999998 l13.40753,5.21929 l-22.6427,24.99748 A18.60467,18.60467 0 0 1 420.43547,400.0012803955078 z" fill="#eb1a1a" id="svg_36" class="" fill-opacity="1"/><polygon points="558.077 435.233 561.951 427.165 532.676 408.381 526.958 420.289 558.077 435.233" fill="#ffb8b8" id="svg_37"/><path d="M577.07386,414.8704803955078 a11.22691,11.22691 0 0 0 -14.98754,5.26349 l-2.61339,5.43873 l-4.02978,8.39535 l-0.98562,2.0587 l10.45391,5.02261 l12.4909,-26.0183 z" fill="#2f2e41" id="svg_38"/><path d="M556.59647,419.0170503955078 l-1.6937200000000003,3.62092 l-4.2269,9.03778 l-0.10213000000000001,0.22631000000000004 c-9.03038,0.45992000000000005 -18.65944,-2.5478 -27.45652,-6.74548 a113.38076,113.38076 0 0 1 -10.2787,-5.57013 c-4.92771,-2.9858000000000002 -9.30789,-6.07386 -12.79015,-8.69465 c-5.24157,-3.9640500000000003 -8.4465,-6.88418 -8.4465,-6.88418 s-0.96351,0.7446000000000002 -2.70108,2.01489 c-2.32875,1.7009400000000001 -6.04467,4.351 -10.73141,7.44628 q-2.68281,1.7849300000000001 -5.75255,3.72318 c-15.08254,9.48309 -36.53075,21.03217 -54.77438,23.47045 c-32.041,4.28527 -24.49969,-38.47256 -24.49969,-38.47256 l25.49992,-13.24277 l10.8264,2.1974 l12.05281,2.4382800000000002 l4.27057,0.8687400000000002 s0.81041,-0.30660000000000004 2.20471,-0.83951 c4.48961,-1.7156000000000002 15.0387,-5.76726 24.14946,-9.38823 c4.694,-1.8688700000000003 9.00133,-3.6282300000000003 11.89953,-4.89121 c10.26409,-4.48966 21.75494,6.38777 21.75494,6.38777 z" fill="#2f2e41" id="svg_39"/><path d="M346.48106,441.68328039550784 a6.84548,6.84548 0 0 0 4.76853,-9.351 l10.95076,-11.1708 l-5.16538,-8.31045 l-15.243,15.99254 a6.88257,6.88257 0 0 0 4.6891300000000005,12.83976 z" fill="#ffb8b8" id="svg_40"/><circle cx="399.6368713378906" cy="312.67254638671875" r="17.072669982910156" fill="#ffb8b8" id="svg_41"/><path d="M377.42588,360.0642003955078 l14.872,42.16353 l-0.08929000000000004,0.14757 c-2.06854,3.41953 -2.74456,6.17781 -1.95483,7.97651 a3.47577,3.47577 0 0 0 2.20364,1.901 l35.19384,-24.59967 l-1.23228,-9.85933 l0.06862000000000003,-0.11014000000000002 c3.4017,-5.4427900000000005 4.50316,-10.37192 3.27427,-14.6498 a14.13919,14.13919 0 0 0 -6.71286,-8.09628 l-0.12262000000000002,-0.09660000000000003 l-17.55353,-21.36444 l-23.4647,4.1688 z" fill="#eb1a1a" id="svg_42" class="" fill-opacity="1"/><path d="M354.80956,434.07138039550784 l-9.96307,-12.26223 l24.01758,-39.64763 l11.19766,-34.61264 l0.3473700000000001,0.11229000000000003 l-0.3473700000000001,-0.11229000000000003 a13.90455,13.90455 0 1 1 24.79447,11.99916 L384.29879000000005,390.3472803955078 z" fill="#eb1a1a" id="svg_43" class="" fill-opacity="1"/><path d="M423.88368,309.21951039550777 H397.99273000000005 l-0.26556,-3.7171700000000003 l-1.32746,3.7171700000000003 h-3.98665 l-0.52614,-7.36732 l-2.6310000000000002,7.36732 h-7.714 v-0.36500000000000005 a19.36753,19.36753 0 0 1 19.34563,-19.3458 h3.6503300000000003 a19.36768,19.36768 0 0 1 19.34581,19.3458 z" fill="#2f2e41" id="svg_44"/><path d="M397.78083000000004,332.3372003955078 a3.35564,3.35564 0 0 1 -0.58138,-0.051330000000000015 l-18.95851,-3.345 V297.6080003955078 h20.86967 l-0.5166900000000001,0.6024200000000001 c-7.18873,8.38394 -1.77286,21.97862 2.09527,29.33595 a3.23651,3.23651 0 0 1 -0.25718,3.43628 A3.2720000000000002,3.2720000000000002 0 0 1 397.78083000000004,332.3372003955078 z" fill="#2f2e41" id="svg_45"/><polygon points="681.028 276.203 681.028 320.344 485.481 320.344 457.244 354.223 460.469 320.344 446.73 320.344 446.73 276.203 681.028 276.203" fill="#e98a8a" id="svg_46" class="" fill-opacity="1"/><circle cx="528.027587890625" cy="298.2029113769531" r="8" fill="#fff" id="svg_47"/><circle cx="501.0275573730469" cy="298.2029113769531" r="8" fill="#fff" id="svg_48"/><circle cx="474.0275573730469" cy="298.2029113769531" r="8" fill="#fff" id="svg_49"/><path d="M912,441.20290039550787 h-911 a1,1 0 0 1 0,-2 h911 a1,1 0 0 1 0,2 z" fill="#cacaca" id="svg_50"/></g></svg>