<svg xmlns="http://www.w3.org/2000/svg" data-name="Layer 1" width="1139.17088" height="654.54324"><rect id="backgroundrect" width="100%" height="100%" x="0" y="0" fill="none" stroke="none"/><title>progressive_app</title><g class="currentLayer" style=""><title>Layer 1</title><circle cx="246.82681274414062" cy="521.7647705078125" r="59.24333953857422" fill="#f2f2f2" id="svg_1"/><circle cx="256.45989990234375" cy="513.094970703125" r="59.24333953857422" fill="#e84141" id="svg_2" class="" fill-opacity="1"/><rect x="304.1713562011719" y="447.5432434082031" width="732.99951171875" height="2" fill="#3f3d56" id="svg_3"/><path d="M683.7927896820069,18.652171704101562 H423.62318968200685 v-5.36232 h-117.971 v5.36232 H44.41010968200683 a17.5985,17.5985 0 0 0 -17.59852,17.59851 V392.5028717041016 a17.59856,17.59856 0 0 0 17.59852,17.59858 H683.7927896820069 a17.59856,17.59856 0 0 0 17.59852,-17.59858 V36.25068170410157 A17.5985,17.5985 0 0 0 683.7927896820069,18.652171704101562 z" fill="#3f3d56" id="svg_4"/><rect x="50.405799865722656" y="49.75362014770508" width="627.3912963867188" height="353.91302490234375" fill="#eb1a1a" id="svg_5" class="" fill-opacity="1"/><circle cx="363.5652160644531" cy="33.66667175292969" r="6.434780120849609" fill="#e84141" id="svg_6" class="selected" fill-opacity="1"/><polygon points="498.374 403.667 50.406 403.667 50.406 49.754 498.374 403.667" opacity="0.1" id="svg_7"/><circle cx="148.57374572753906" cy="316.87640380859375" r="60.306800842285156" fill="#f2f2f2" id="svg_8"/><rect x="509.9527282714844" y="240.6217498779297" width="58.605201721191406" height="12.24586009979248" fill="#3f3d56" id="svg_9"/><rect x="439.1016540527344" y="145.27896118164062" width="200.3073272705078" height="5.24822998046875" fill="#3f3d56" id="svg_10"/><rect x="439.1016540527344" y="161.89834594726562" width="200.3073272705078" height="5.24822998046875" fill="#3f3d56" id="svg_11"/><rect x="439.1016540527344" y="178.51773071289062" width="200.3073272705078" height="5.24822998046875" fill="#3f3d56" id="svg_12"/><rect x="439.1016540527344" y="195.13711547851562" width="200.3073272705078" height="5.24822998046875" fill="#3f3d56" id="svg_13"/><rect x="439.1016540527344" y="211.75650024414062" width="200.3073272705078" height="5.24822998046875" fill="#3f3d56" id="svg_14"/><rect x="614.917236328125" y="56.933799743652344" width="24.491729736328125" height="24.491729736328125" fill="#f2f2f2" id="svg_15"/><path d="M650.7801396820068,92.79669170410156 h-29.74 v-29.74 h29.74 zm-28.44691,-1.2930000000000001 h27.15387 V64.34978170410156 H622.3332296820068 z" fill="#3f3d56" id="svg_16"/><path d="M719.0070896820068,397.23186170410156 H657.7777796820068 v-4.41153 a0.8746800000000001,0.8746800000000001 0 0 0 -0.8747100000000001,-0.8747100000000001 h-20.9929 a0.8746800000000001,0.8746800000000001 0 0 0 -0.8747100000000001,0.8747100000000001 v4.41153 H621.9148896820068 v-4.41153 a0.8746700000000002,0.8746700000000002 0 0 0 -0.8747000000000001,-0.8747100000000001 H600.0472796820069 a0.8746800000000001,0.8746800000000001 0 0 0 -0.8747000000000001,0.8747100000000001 v4.41153 H586.0520096820069 v-4.41153 a0.8746800000000001,0.8746800000000001 0 0 0 -0.8747000000000001,-0.8747100000000001 H564.1844396820069 a0.8746800000000001,0.8746800000000001 0 0 0 -0.8747100000000001,0.8747100000000001 v4.41153 H550.1891296820069 v-4.41153 a0.8746800000000001,0.8746800000000001 0 0 0 -0.8747100000000001,-0.8747100000000001 H528.3215096820069 a0.8746800000000001,0.8746800000000001 0 0 0 -0.8747000000000001,0.8747100000000001 v4.41153 H514.3262396820069 v-4.41153 a0.8746800000000001,0.8746800000000001 0 0 0 -0.8747000000000001,-0.8747100000000001 H492.45862968200686 a0.8746700000000002,0.8746700000000002 0 0 0 -0.8747000000000001,0.8747100000000001 v4.41153 H478.46335968200685 v-4.41153 a0.8746800000000001,0.8746800000000001 0 0 0 -0.8747100000000001,-0.8747100000000001 h-20.9929 a0.8746800000000001,0.8746800000000001 0 0 0 -0.8747100000000001,0.8747100000000001 v4.41153 H442.6004396820068 v-4.41153 a0.8746800000000001,0.8746800000000001 0 0 0 -0.8747000000000001,-0.8747100000000001 H277.2813196820068 a0.8746800000000001,0.8746800000000001 0 0 0 -0.8747000000000001,0.8747100000000001 v4.41153 H263.2860496820068 v-4.41153 a0.8746800000000001,0.8746800000000001 0 0 0 -0.8747000000000001,-0.8747100000000001 H241.41843968200686 a0.8746700000000002,0.8746700000000002 0 0 0 -0.8747000000000001,0.8747100000000001 v4.41153 H227.42316968200686 v-4.41153 a0.8746800000000001,0.8746800000000001 0 0 0 -0.8747100000000001,-0.8747100000000001 h-20.9929 a0.8746800000000001,0.8746800000000001 0 0 0 -0.8747100000000001,0.8747100000000001 v4.41153 H191.56027968200684 v-4.41153 a0.8746700000000002,0.8746700000000002 0 0 0 -0.8747000000000001,-0.8747100000000001 H169.69266968200682 a0.8746800000000001,0.8746800000000001 0 0 0 -0.8747000000000001,0.8747100000000001 v4.41153 H155.69743968200683 v-4.41153 a0.8746800000000001,0.8746800000000001 0 0 0 -0.8747000000000001,-0.8747100000000001 H133.82978968200683 a0.8746800000000001,0.8746800000000001 0 0 0 -0.8747100000000001,0.8747100000000001 v4.41153 H119.83451968200683 v-4.41153 a0.8746800000000001,0.8746800000000001 0 0 0 -0.8747100000000001,-0.8747100000000001 H97.96689968200684 a0.8746800000000001,0.8746800000000001 0 0 0 -0.8747000000000001,0.8747100000000001 v4.41153 H83.97162968200684 v-4.41153 a0.8746800000000001,0.8746800000000001 0 0 0 -0.8747000000000001,-0.8747100000000001 H62.104019682006836 a0.8746700000000002,0.8746700000000002 0 0 0 -0.8747000000000001,0.8747100000000001 v4.41153 H20.99290968200684 a20.99293,20.99293 0 0 0 -20.99291,20.99291 v9.4925 A20.99291,20.99291 0 0 0 20.99290968200684,448.71012170410154 H719.0070896820068 a20.9929,20.9929 0 0 0 20.99291,-20.99285 v-9.4925 A20.99292,20.99292 0 0 0 719.0070896820068,397.23186170410156 z" fill="#3f3d56" id="svg_17"/><path d="M163.17136968200683,354.54324170410155 a76,76 0 1 1 76,-76 A76.08614,76.08614 0 0 1 163.17136968200683,354.54324170410155 zm0,-150 a74,74 0 1 0 74,74 A74.08385,74.08385 0 0 0 163.17136968200683,204.54324170410155 z" fill="#3f3d56" id="svg_18"/><rect x="586.17138671875" y="32.54323959350586" width="254.99951171875" height="2" fill="#3f3d56" id="svg_19"/><rect x="406.1713562011719" y="560.543212890625" width="732.99951171875" height="2" fill="#3f3d56" id="svg_20"/><rect x="192.67161560058594" y="652.543212890625" width="254.99951171875" height="2" fill="#3f3d56" id="svg_21"/><rect x="471" y="550" width="28" height="28" fill="#e84141" id="svg_22" class="" fill-opacity="1"/><path d="M515.9999996820069,562.0000017041016 h-34 v-34 h34 zm-32.52174,-1.4782600000000001 H514.5217396820068 V529.4782617041016 H483.47825968200686 z" fill="#3f3d56" id="svg_23"/><rect x="796" y="22" width="28" height="28" fill="#e84141" id="svg_24" class="" fill-opacity="1"/><path d="M840.9999996820069,34.00000170410155 h-34 v-34 h34 zm-32.52174,-1.4782600000000001 H839.5217396820068 V1.4782617041015556 H808.4782596820069 z" fill="#3f3d56" id="svg_25"/><rect x="1078" y="550" width="28" height="28" fill="#e84141" id="svg_26" class="" fill-opacity="1"/><path d="M1122.9999996820068,562.0000017041016 h-34 v-34 h34 zm-32.52174,-1.4782600000000001 h31.04348 V529.4782617041016 h-31.04348 z" fill="#3f3d56" id="svg_27"/><path d="M1057.1713696820068,231.95822170410156 h-2.37862 V166.79662170410154 a37.71374,37.71374 0 0 0 -37.71385,-37.71377 H879.0254396820069 A37.71373,37.71373 0 0 0 841.3115696820068,166.79662170410154 V524.2780117041016 A37.71374,37.71374 0 0 0 879.0254396820069,561.9917917041016 h138.05348 a37.71374,37.71374 0 0 0 37.71385,-37.71378 V278.34131170410154 h2.37862 z" fill="#3f3d56" id="svg_28"/><path d="M1046.7614396820068,169.01321170410154 v356.96 a28.16523,28.16523 0 0 1 -28.16016,28.17 H879.8814396820069 a28.16511,28.16511 0 0 1 -28.16,-28.17 v-356.96 a28.163,28.163 0 0 1 28.16,-28.16 h16.83 a13.3792,13.3792 0 0 0 12.39,18.43 h79.09 a13.37908,13.37908 0 0 0 12.38995,-18.43 h18.02 A28.16308,28.16308 0 0 1 1046.7614396820068,169.01321170410154 z" fill="#eb1a1a" id="svg_29" class="" fill-opacity="1"/><rect x="928.5796508789062" y="376.2176818847656" width="41.323570251464844" height="12.24586009979248" fill="#3f3d56" id="svg_30"/><rect x="878.621337890625" y="280.8749084472656" width="141.2402801513672" height="5.24822998046875" fill="#3f3d56" id="svg_31"/><rect x="878.621337890625" y="297.4942932128906" width="141.2402801513672" height="5.24822998046875" fill="#3f3d56" id="svg_32"/><rect x="878.621337890625" y="314.1136779785156" width="141.2402801513672" height="5.24822998046875" fill="#3f3d56" id="svg_33"/><rect x="878.621337890625" y="330.7330627441406" width="141.2402801513672" height="5.24822998046875" fill="#3f3d56" id="svg_34"/><rect x="878.621337890625" y="347.3524475097656" width="141.2402801513672" height="5.24822998046875" fill="#3f3d56" id="svg_35"/><rect x="929.6835327148438" y="211.17872619628906" width="24.491729736328125" height="24.491729736328125" fill="#f2f2f2" id="svg_36"/><path d="M939.0592996820068,217.30325170410157 v29.74 h29.74 v-29.74 zm28.45,28.45 h-27.16 v-27.16 h27.16 z" fill="#3f3d56" id="svg_37"/><path d="M1046.7614396820068,487.8532417041016 v38.12 a28.16523,28.16523 0 0 1 -28.16016,28.17 H879.8814396820069 a28.16511,28.16511 0 0 1 -28.16,-28.17 v-192.21 l116.87,92.33 l2,1.58 l21.74,17.17 l2.03,1.61 z" opacity="0.1" id="svg_38"/><circle cx="937.241455078125" cy="498.7069091796875" r="43.867828369140625" fill="#f2f2f2" id="svg_39"/><path d="M320.17136968200685,654.5432417041015 a87,87 0 1 1 87,-87 A87.09858,87.09858 0 0 1 320.17136968200685,654.5432417041015 zm0,-172 a85,85 0 1 0 85,85 A85.09629,85.09629 0 0 0 320.17136968200685,482.54324170410155 z" fill="#3f3d56" id="svg_40"/><path d="M950.1713696820068,532.5432417041015 a55,55 0 1 1 55,-55 A55.06223,55.06223 0 0 1 950.1713696820068,532.5432417041015 zm0,-108 a53,53 0 1 0 53,53 A53.05963,53.05963 0 0 0 950.1713696820068,424.54324170410155 z" fill="#3f3d56" id="svg_41"/></g></svg>