<svg xmlns="http://www.w3.org/2000/svg" data-name="Layer 1" width="890.30174" height="489.29978"><rect id="backgroundrect" width="100%" height="100%" x="0" y="0" fill="none" stroke="none"/><title>work_together</title><g class="currentLayer" style=""><title>Layer 1</title><rect x="182.97244262695312" y="0.39886000752449036" width="703.5756225585938" height="450.60113525390625" fill="#e6e6e6" id="svg_1"/><rect x="245.18701171875" y="60.90721893310547" width="254" height="261" fill="#fff" id="svg_2"/><rect x="594.18701171875" y="65.96874237060547" width="254" height="317" fill="#fff" id="svg_3"/><ellipse cx="844.8017578125" cy="477.2615966796875" rx="45.5" ry="6.5" fill="#e6e6e6" id="svg_4"/><ellipse cx="389.89959716796875" cy="477.4072265625" rx="45.5" ry="6.5" fill="#e6e6e6" id="svg_5"/><ellipse cx="104.42498016357422" cy="470.9072265625" rx="104.42498016357422" ry="5" fill="#e6e6e6" id="svg_6"/><rect x="182.67202758789062" width="703.5756225585938" height="29.890470504760742" fill="#eb1a1a" id="svg_7" class="" fill-opacity="1"/><circle cx="204.8842315673828" cy="15.281590461730957" r="5.5399699211120605" fill="#e6e6e6" id="svg_8"/><circle cx="225.91256713867188" cy="15.281590461730957" r="5.5399699211120605" fill="#e6e6e6" id="svg_9"/><circle cx="246.94088745117188" cy="15.281590461730957" r="5.5399699211120605" fill="#e6e6e6" id="svg_10"/><path d="M792.187003647461,150.99867708496095 H790.6483636474609 V108.84811708496096 a24.3956,24.3956 0 0 0 -24.39567,-24.39563 H676.9510836474609 a24.3956,24.3956 0 0 0 -24.39567,24.39563 V340.08936708496094 a24.3956,24.3956 0 0 0 24.39567,24.39563 h89.30161 a24.3956,24.3956 0 0 0 24.39567,-24.39563 V181.0021570849609 h1.53864 z" fill="#3f3d56" id="svg_11"/><path d="M766.237073647461,90.79938708496093 H754.580253647461 a8.6555,8.6555 0 0 1 -8.01381,11.92446 H695.406653647461 A8.65552,8.65552 0 0 1 687.3928636474609,90.79938708496093 H676.5053436474609 a18.21836,18.21836 0 0 0 -18.21838,18.21834 v230.902 a18.21836,18.21836 0 0 0 18.21838,18.21836 h89.73173 a18.21837,18.21837 0 0 0 18.21839,-18.21836 v-230.902 A18.21837,18.21837 0 0 0 766.237073647461,90.79938708496093 z" fill="#fff" id="svg_12"/><rect x="284.0902404785156" y="225.77560424804688" width="176.54440307617188" height="8.052669525146484" fill="#e6e6e6" id="svg_13"/><rect x="284.0902404785156" y="251.77560424804688" width="176.54440307617188" height="8.052669525146484" fill="#eb1a1a" id="svg_14" class="" fill-opacity="1"/><rect x="284.0902404785156" y="277.7756042480469" width="176.54440307617188" height="8.052669525146484" fill="#e6e6e6" id="svg_15"/><rect x="670.83935546875" y="243.34556579589844" width="103.06375885009766" height="8.052669525146484" fill="#e6e6e6" id="svg_16"/><rect x="670.83935546875" y="268.3455505371094" width="103.06375885009766" height="8.052669525146484" fill="#e6e6e6" id="svg_17"/><rect x="670.83935546875" y="293.3455505371094" width="103.06375885009766" height="8.052669525146484" fill="#e6e6e6" id="svg_18"/><rect x="2313.593017578125" y="85.426025390625" width="17.177289962768555" height="17.177289962768555" transform="rotate(90 1391.2423095703127,-521.1373901367189) " fill="#3f3d56" id="svg_19"/><rect x="2258.2439575195312" y="113.10052490234375" width="17.177289962768555" height="17.177289962768555" transform="rotate(90 1363.5677490234377,-493.46289062499994) " fill="#eb1a1a" id="svg_20" class="" fill-opacity="1"/><rect x="2202.8948364257812" y="140.77505493164062" width="17.177289962768555" height="17.177289962768555" transform="rotate(90 1335.8931884765627,-465.78836059570307) " fill="#3f3d56" id="svg_21"/><rect x="2147.5458984375" y="168.4495849609375" width="17.177289962768555" height="17.177289962768555" transform="rotate(90 1308.2187500000002,-438.1138305664062) " fill="#3f3d56" id="svg_22"/><rect x="2092.19677734375" y="196.12411499023438" width="17.177289962768555" height="17.177289962768555" transform="rotate(90 1280.5441894531252,-410.4393005371093) " fill="#3f3d56" id="svg_23"/><rect x="692.7423706054688" y="138.99029541015625" width="57.25764083862305" height="57.25764083862305" fill="#eb1a1a" id="svg_24" class="" fill-opacity="1"/><path d="M349.60528364746096,275.5928870849609 l-0.7411400000000001,1.48227 l-2.2234,-11.117 s-2.96454,-11.85815 2.96454,-11.85815 s4.4468,11.85815 4.4468,11.85815 v8.15248 z" fill="#a0616a" id="svg_25"/><path d="M446.84641364746096,274.0751270849609 l0.7411300000000001,1.48227 l2.22341,-11.117 s2.96454,-11.85815 -2.96454,-11.85815 s-4.44681,11.85815 -4.44681,11.85815 V272.5928870849609 z" fill="#a0616a" id="svg_26"/><polygon points="382.215 358.94 373.322 413.784 377.768 467.145 388.144 462.699 386.662 422.677 397.038 390.808 399.261 428.606 394.815 467.886 408.155 469.369 417.79 388.585 417.049 361.163 382.215 358.94" fill="#2f2e41" id="svg_27"/><path d="M382.21520364746095,460.4751470849609 l-5.18794,8.15248 V486.8438870849609 a2.209,2.209 0 0 0 1.85635,2.18045 c2.5428,0.41721 6.97037,0.7136400000000002 8.51954,-1.8683100000000001 c2.2234,-3.70567 0.7411300000000001,-11.85816 0.7411300000000001,-11.85816 s2.96454,-5.92907 1.48227,-10.37588 s-2.96454,-5.18794 -2.96454,-5.18794 z" fill="#2f2e41" id="svg_28"/><path d="M404.449253647461,467.886497084961 l1.48227,2.2234 s2.2234,2.22341 0.7411300000000001,3.70568 a28.96565,28.96565 0 0 0 -2.96454,3.70567 s-8.15248,2.2234 -8.15248,-0.7411400000000001 v-9.63475 z" fill="#2f2e41" id="svg_29"/><circle cx="401.77825927734375" cy="288.7950744628906" r="9.824270248413086" fill="#a0616a" id="svg_30"/><polygon points="395.185 291.867 394.444 305.949 407.784 306.69 407.043 292.608 395.185 291.867" fill="#a0616a" id="svg_31"/><path d="M409.6371936474609,307.0602570849609 l-2.10384,-5.13957 s-9.75432,-3.7540500000000003 -12.71885,-0.048380000000000006 l-1.48227,4.44681 l-11.85816,-2.96454 l-6.67021,14.8227 l5.92908,42.24468 s15.56382,20.01064 36.3156,0.7411300000000001 l5.92908,-40.02127 L418.53086364746093,305.5779870849609 z" fill="#575a89" id="svg_32"/><polygon points="417.049 308.543 418.531 305.578 433.354 296.684 442.4 269.907 449.4 272.907 441.506 304.837 420.013 324.847 417.049 308.543" fill="#575a89" id="svg_33"/><polygon points="382.956 304.837 381.474 303.355 365.91 293.72 354.793 271.486 345.9 274.45 355.534 301.872 379.251 321.142 382.956 304.837" fill="#575a89" id="svg_34"/><path d="M409.0697836474609,273.7503570849609 l1.60629,-0.80315 l-2.40943,-0.8031400000000001 V271.3408870849609 s-12.04715,-4.81886 -13.65343,3.21257 a16.14329,16.14329 0 0 0 0,19.27544 v2.40942 l12.85029,1.60629 l1.60628,-4.81886 S417.101223647461,278.56921708496094 409.0697836474609,273.7503570849609 z" fill="#2f2e41" id="svg_35"/><path d="M115.08977364746096,359.8096670849609 l-2.85542,1.42771 s-11.42168,5.23493 -8.09036,8.09035 s12.37349,-2.85542 12.37349,-2.85542 l1.90361,-2.3795200000000003 z" fill="#ffb8b8" id="svg_36"/><polygon points="198.633 359.099 189.807 418.346 176.481 459.749 169.343 456.418 176.005 399.786 156.969 383.605 158.397 359.81 198.633 359.099" fill="#2f2e41" id="svg_37"/><path d="M168.39092364746097,457.84571708496094 s8.09036,-4.28313 8.56626,1.90361 l-0.95181,6.18674 s2.85542,10.94578 -6.662640000000001,8.56626 s-2.85542,-9.51806 -2.85542,-9.51806 z" fill="#2f2e41" id="svg_38"/><path d="M163.15599364746095,378.36988708496096 l-6.18674,5.23493 s0,32.36142 4.28312,37.12045 s31.40961,29.0301 32.36142,29.9819 s5.23494,-9.51806 5.23494,-9.51806 l-25.69878,-29.9819 l1.90362,-18.56023 z" fill="#2f2e41" id="svg_39"/><path d="M195.99331364746092,439.7613970849609 s7.61445,-1.42771 7.61445,3.80722 a115.23116,115.23116 0 0 0 0.9518000000000001,12.37349 s1.90362,16.65661 -4.28313,14.27709 s-8.56625,-19.03612 -8.56625,-19.03612 a7.08933,7.08933 0 0 1 2.85542,-3.33133 C196.46921364746095,446.8999470849609 195.99331364746092,439.7613970849609 195.99331364746092,439.7613970849609 z" fill="#2f2e41" id="svg_40"/><polygon points="172.198 288.424 173.626 306.033 169.819 312.695 159.349 302.701 158.397 289.376 172.198 288.424" fill="#ffb8b8" id="svg_41"/><circle cx="163.63189697265625" cy="282.7133483886719" r="11.421680450439453" fill="#ffb8b8" id="svg_42"/><polygon points="168.391 305.557 173.15 291.756 181.716 301.274 197.421 361.713 185.523 368.852 180.289 361.237 179.337 371.231 156.017 366.472 154.114 302.701 158.87 296.002 168.391 305.557" fill="#d0cde1" id="svg_43"/><polygon points="161.728 373.135 158.873 296.039 152.686 300.798 141.264 308.412 148.879 335.539 151.258 364.093 161.728 373.135" fill="#2f2e41" id="svg_44"/><polygon points="144.596 308.888 141.264 308.412 131.746 336.49 112.71 360.286 119.849 367.9 141.74 346.484 149.831 328.876 144.596 308.888" fill="#2f2e41" id="svg_45"/><path d="M196.56826364746092,360.24524708496097 l-0.6493300000000001,3.12573 s-2.97081,12.20793 1.33475,11.36336 s5.4281,-11.480080000000001 5.4281,-11.480080000000001 l-0.6875400000000002,-2.96869 z" fill="#ffb8b8" id="svg_46"/><polygon points="172.406 290.983 195.993 300.322 193.138 328.876 198.849 360.286 193.138 366.472 172.022 295.028 172.406 290.983" fill="#2f2e41" id="svg_47"/><path d="M164.22986364746095,263.53048708496095 l3.35262,-1.6763000000000001 v1.6763000000000001 l2.23507,-1.11753 v2.7938400000000003 s8.38153,6.14645 6.70522,13.41044 s-1.67631,7.82276 -1.67631,7.82276 s-2.11922,-13.81412 -10.50074,-11.57905 s-9.05615,2.63876 -11.29122,8.78521 l-0.60636,2.63647 S142.99669364746092,264.6480270849609 164.22986364746095,263.53048708496095 z" fill="#2f2e41" id="svg_48"/><polygon points="192.662 300.322 196.469 300.322 202.656 333.635 202.656 362.665 195.042 361.237 188.855 317.454 192.662 300.322" fill="#2f2e41" id="svg_49"/><rect x="3.5350100994110107" y="370.7715759277344" width="140.32095336914062" height="97.51117706298828" fill="#eb1a1a" id="svg_50" class="" fill-opacity="1"/><path d="M73.69548364746095,389.79815708496096 a29.729,29.729 0 1 0 29.729,29.729 A29.81642,29.81642 0 0 0 73.69548364746095,389.79815708496096 zm0,8.9187 a8.91871,8.91871 0 1 1 -8.91871,8.91871 a8.94863,8.94863 0 0 1 8.91871,-8.91871 zm0,42.93556 a21.65737,21.65737 0 0 1 -17.83742,-9.519 c0.14293000000000003,-5.94581 11.89161,-9.21886 17.83742,-9.21886 s17.69448,3.27305 17.8374,9.21886 a21.69344,21.69344 0 0 1 -17.83741,9.519 z" fill="#fff" id="svg_51"/><rect x="284.18701171875" y="90.90721893310547" width="176" height="101" fill="#e6e6e6" id="svg_52"/><path d="M808.2021636474609,291.23354708496095 l0.81548,-5.25988 s4.75311,-10.80516 0.99606,-11.38765 s-6.89084,9.70426 -6.89084,9.70426 l1.37467,10.98574 z" fill="#ffb8b8" id="svg_53"/><polygon points="846.67 321.051 813.089 314.306 809.187 289.847 799.302 289.084 799.785 320.707 828.962 336.004 846.67 321.051" fill="#575a89" id="svg_54"/><polygon points="846.67 321.051 813.089 314.306 809.187 289.847 799.302 289.084 799.785 320.707 828.962 336.004 846.67 321.051" opacity="0.2" id="svg_55"/><rect x="2678.7014770507812" y="1248.8877868652344" width="103.06375885009766" height="8.052669525146484" transform="rotate(-180 1768.5391845703125,766.8260498046875) " fill="#eb1a1a" id="svg_56" class="" fill-opacity="1"/><path d="M801.6412036474609,289.43032708496094 l0.0066900000000000015,-5.32271 s3.05587,-11.402 -0.7460600000000001,-11.40676 s-5.33608,10.63873 -5.33608,10.63873 l3.02818,10.64924 z" fill="#ffb8b8" id="svg_57"/><path d="M845.353163647461,304.67477708496097 l4.60746,-1.12311 a11.86169,11.86169 0 0 0 11.64163,-14.21088 h0 a15.50416,15.50416 0 0 0 -15.48468,-15.52363 h0 A15.50417,15.50417 0 0 0 830.5938636474609,289.30182708496096 v0 A12.32065,12.32065 0 0 0 845.353163647461,304.67477708496097 z" fill="#2f2e41" id="svg_58"/><polygon points="818.254 381.458 822.005 422.524 828.797 462.833 840.203 462.847 838.732 423.305 832.709 375.393 818.254 381.458" fill="#2f2e41" id="svg_59"/><path d="M830.321013647461,460.5536770849609 l-7.6096,4.55277 s-12.1681,1.50549 -9.89171,5.31029 s28.89279,1.55707 28.8947,0.03629 s-0.7480000000000001,-9.886 -2.26874,-9.88789 z" fill="#2f2e41" id="svg_60"/><path d="M851.9222536474609,377.9103870849609 s-0.21394000000000005,5.870950000000001 -5.54811,14.98891 l0.7250500000000001,28.13527 l27.33,35.01218 l-9.89553,8.35184 l-33.40927,-38.06137 l-8.307,-45.63372 l10.65879,-10.63205 z" fill="#2f2e41" id="svg_61"/><path d="M872.1480236474608,456.04388708496094 s9.12274,1.53224 7.59719,5.33226 s-5.34945,21.28415 -15.23162,18.990569999999998 c0,0 -4.56232,-0.005730000000000001 -3.03773,-3.04536 a55.0044,55.0044 0 0 1 3.04824,-5.31889 l0.012410000000000001,-9.885 z" fill="#2f2e41" id="svg_62"/><circle cx="840.4152221679688" cy="294.0413513183594" r="11.405810356140137" fill="#ffb8b8" id="svg_63"/><polygon points="845.728 301.652 845.712 314.578 833.546 314.563 835.083 301.639 845.728 301.652" fill="#ffb8b8" id="svg_64"/><path d="M830.5101236474609,309.9970670849609 l3.6865200000000002,-0.9056000000000001 l11.52122,0.9247000000000001 s6.07545,6.09074 5.31316,7.61055 s-4.611,38.774 -4.611,38.774 l6.81006,26.62213 l-24.33429,1.49021 l-12.16428,-1.53605 l2.34133,-47.90151 s-5.30647,-12.93326 1.5417800000000002,-16.7266 A29.95429,29.95429 0 0 0 830.5101236474609,309.9970670849609 z" fill="#575a89" id="svg_65"/><polygon points="844.193 313.056 809.978 311.492 802.404 287.911 792.518 288.658 797.801 319.841 828.964 330.526 844.193 313.056" fill="#575a89" id="svg_66"/><circle cx="862.4324340820312" cy="278.27935791015625" r="7.358829975128174" fill="#2f2e41" id="svg_67"/><path d="M855.6425436474609,274.3234570849609 a7.35536,7.35536 0 0 1 8.807,-7.20494 A7.3554,7.3554 0 1 0 859.861863647461,280.98088708496095 A7.35277,7.35277 0 0 1 855.6425436474609,274.3234570849609 z" fill="#2f2e41" id="svg_68"/><path d="M849.329483647461,278.4968870849609 l-9.92079,-1.8266900000000001 l-7.62952,4.78184 a11.57336,11.57336 0 0 0 -5.3312800000000005,11.29456 l7.64125,-1.93681 l1.71106,-4.29045 l2.03787,3.34024 l8.26714,14.45412 l8.37,-4.55181 l5.33322,-8.35757 z" fill="#2f2e41" id="svg_69"/><rect x="335.1478729248047" y="671.2276153564453" width="1.9995800256729126" height="202.92117309570312" transform="rotate(-60.15005111694336 -190.8885040283202,425.93087768554693) " fill="#fff" id="svg_70"/><rect x="168.05868530273438" y="448.68438720703125" width="202.92117309570312" height="1.9995800256729126" transform="rotate(-29.845529556274414 -257.5168762207032,102.92684936523435) " fill="#fff" id="svg_71"/><rect x="713.8393859863281" y="856.0848693847656" width="1.9997899532318115" height="80.61016845703125" transform="rotate(-45 -161.6968688964844,523.6326293945312) " fill="#fff" id="svg_72"/><rect x="674.5342102050781" y="895.3900451660156" width="80.61016845703125" height="1.9997899532318115" transform="rotate(-45 -161.6968688964844,523.6326293945312) " fill="#fff" id="svg_73"/></g></svg>